<svg xmlns="http://www.w3.org/2000/svg" viewBox="0 0 508 508">
  <style>
    rect {
      fill: black;
    }

    path {
      fill: white;
    }

    @media (prefers-color-scheme: dark) {
      rect {
        fill: white;
      }

      path {
        fill: black;
      }
    }
  </style>
  <rect width="508" height="508" rx="26.458" ry="26.458"/>
  <path d="m115.053 205.082 12.983 20.508-61.054 35.654 61.054 34.995-13.453 21.167-73.284-45.532v-21.073zm92.192 95.014q6.115 0 11.477-2.352 5.457-2.446 10.819-6.209l13.264 18.815q-6.585 5.645-16.086 9.408-9.408 3.763-21.073 3.763-16.086 0-27.658-6.586-11.57-6.679-17.78-18.438Q154 286.644 154 271.027q0-15.616 6.303-27.751 6.397-12.23 18.062-19.191 11.759-6.962 27.846-6.962 11.383 0 20.225 3.199 8.938 3.104 16.37 9.313l-12.889 17.874q-5.08-3.575-10.724-5.55-5.645-1.976-11.76-1.976-10.065 0-16.274 7.15-6.115 7.055-6.115 23.894 0 11.007 2.916 17.404 2.917 6.303 7.902 9.031 5.08 2.634 11.383 2.634zm94.168 41.299-23.236-10.63 79.116-164.16 23.048 10.63-7.432 15.429 93.792 57.95v21.26l-73.284 45.532-13.453-20.226 61.148-35.936-78.927-46.19z" aria-label="&lt;c/&gt;" font-family="FiraCode Nerd Font" font-size="183.444" font-weight="700" style="line-height:1.25;-inkscape-font-specification:&quot;FiraCode Nerd Font, Bold&quot;"/>
</svg>
